<svg viewBox="0 0 400 800" xmlns="http://www.w3.org/2000/svg">
  <!-- 背景 -->
  <rect width="400" height="800" fill="#2c3e50"/>
  
  <!-- 路徑 -->
  <path d="M200 760 C150 690, 250 630, 200 560 C150 490, 250 430, 200 360 C150 290, 250 230, 200 160 C150 90, 250 30, 200 80" 
        stroke="#ffd700" stroke-width="4" fill="none" stroke-dasharray="5,5"/>
  
  <!-- 關卡（等距分布） -->
  <circle cx="200" cy="760" r="20" fill="#e74c3c"/>
  <text x="195" y="766" fill="white" font-size="16">1</text>
  
  <circle cx="200" cy="680" r="20" fill="#e67e22"/>
  <text x="195" y="686" fill="white" font-size="16">2</text>
  
  <circle cx="200" cy="600" r="20" fill="#f1c40f"/>
  <text x="195" y="606" fill="white" font-size="16">3</text>
  
  <circle cx="200" cy="520" r="20" fill="#2ecc71"/>
  <text x="195" y="526" fill="white" font-size="16">4</text>
  
  <circle cx="200" cy="440" r="20" fill="#3498db"/>
  <text x="195" y="446" fill="white" font-size="16">5</text>
  
  <circle cx="200" cy="360" r="20" fill="#9b59b6"/>
  <text x="195" y="366" fill="white" font-size="16">6</text>
  
  <circle cx="200" cy="280" r="20" fill="#1abc9c"/>
  <text x="195" y="286" fill="white" font-size="16">7</text>
  
  <circle cx="200" cy="200" r="20" fill="#e84393"/>
  <text x="195" y="206" fill="white" font-size="16">8</text>
  
  <circle cx="200" cy="120" r="20" fill="#00cec9"/>
  <text x="195" y="126" fill="white" font-size="16">9</text>
  
  <circle cx="200" cy="40" r="25" fill="#6c5ce7"/>
  <text x="190" y="46" fill="white" font-size="16">10</text>
</svg>
